<svg xmlns="http://www.w3.org/2000/svg" version="1.1" xmlns:xlink="http://www.w3.org/1999/xlink" xmlns:svgjs="http://svgjs.dev/svgjs" width="1440" height="560" preserveAspectRatio="none" viewBox="0 0 1440 560"><g mask="url(&quot;#SvgjsMask1000&quot;)" fill="none"><rect width="1440" height="560" x="0" y="0" fill="#0e2a47"></rect><path d="M890.78 10.38L899.15 10.38L899.15 14.69L890.78 14.69z" fill="rgba(100, 108, 255, 1)"></path><path d="M68.2 252.97 a3.7 3.7 0 1 0 7.4 0 a3.7 3.7 0 1 0 -7.4 0z" stroke="rgba(251, 173, 52, 1)"></path><path d="M983.12 232.7L990.37 232.7L990.37 239.95L983.12 239.95z" fill="rgba(251, 173, 52, 1)"></path><path d="M796.3 122.34a24.08 24.08 0 1 0-36.82 31.04z" fill="rgba(100, 108, 255, 1)"></path><path d="M64.05 538.31 a3.92 3.92 0 1 0 7.84 0 a3.92 3.92 0 1 0 -7.84 0z" fill="rgba(251, 173, 52, 1)"></path><path d="M1127.97 66.95L1168.8 66.95L1168.8 107.78L1127.97 107.78z" fill="rgba(24, 39, 47, 1)"></path><path d="M673.77 479.28L682.95 479.28L682.95 520.23L673.77 520.23z" stroke="rgba(24, 39, 47, 1)"></path><path d="M1296.53 312.6L1332.6 312.6L1332.6 346.42L1296.53 346.42z" stroke="rgba(24, 39, 47, 1)"></path><path d="M1263.76 68.17L1274.11 68.17L1274.11 111.76L1263.76 111.76z" fill="rgba(24, 39, 47, 1)"></path><path d="M518.59 320.56 a14.78 14.78 0 1 0 29.56 0 a14.78 14.78 0 1 0 -29.56 0z" fill="rgba(24, 39, 47, 1)"></path><path d="M1049.82 433.72 a27.92 27.92 0 1 0 55.84 0 a27.92 27.92 0 1 0 -55.84 0z" fill="rgba(24, 39, 47, 1)"></path><path d="M708.89 144.69 a55.38 55.38 0 1 0 110.76 0 a55.38 55.38 0 1 0 -110.76 0z" fill="rgba(100, 108, 255, 1)"></path><path d="M1346.33 518.42L1399.11 518.42L1399.11 561.57L1346.33 561.57z" stroke="rgba(251, 173, 52, 1)"></path><path d="M751.87 105.56L775.83 105.56L775.83 148.13L751.87 148.13z" fill="rgba(211, 70, 69, 1)"></path><path d="M1102.35 432.42a38.9 38.9 0 1 0-23.98-74.01z" stroke="rgba(100, 108, 255, 1)"></path><path d="M595.55 342.68 a17.55 17.55 0 1 0 35.1 0 a17.55 17.55 0 1 0 -35.1 0z" fill="rgba(211, 70, 69, 1)"></path><path d="M1277.62 227.7L1299.8 227.7L1299.8 282.32L1277.62 282.32z" fill="rgba(251, 173, 52, 1)"></path><path d="M1005.18 464.22 a50.29 50.29 0 1 0 100.58 0 a50.29 50.29 0 1 0 -100.58 0z" fill="rgba(251, 173, 52, 1)"></path><path d="M1212.18 89.22L1235.6 89.22L1235.6 113.94L1212.18 113.94z" stroke="rgba(24, 39, 47, 1)"></path><path d="M630.8 535.32L637.35 535.32L637.35 579.3L630.8 579.3z" fill="rgba(211, 70, 69, 1)"></path><path d="M1088.25 174.34 a21.76 21.76 0 1 0 43.52 0 a21.76 21.76 0 1 0 -43.52 0z" fill="rgba(24, 39, 47, 1)"></path><path d="M193.15 28.73L221.34 28.73L221.34 56.92L193.15 56.92z" fill="rgba(211, 70, 69, 1)"></path><path d="M897.1 47.61L931.53 47.61L931.53 82.04L897.1 82.04z" stroke="rgba(100, 108, 255, 1)"></path><path d="M325.37 106.9 a40.13 40.13 0 1 0 80.26 0 a40.13 40.13 0 1 0 -80.26 0z" fill="rgba(100, 108, 255, 1)"></path><path d="M490.69 124.21L514.9 124.21L514.9 137.84L490.69 137.84z" fill="rgba(251, 173, 52, 1)"></path><path d="M394.28 482.09L396.56 482.09L396.56 484.37L394.28 484.37z" fill="rgba(100, 108, 255, 1)"></path><path d="M488.4 491.86 a4.77 4.77 0 1 0 9.54 0 a4.77 4.77 0 1 0 -9.54 0z" fill="rgba(251, 173, 52, 1)"></path><path d="M342.87 333.85 a22.59 22.59 0 1 0 45.18 0 a22.59 22.59 0 1 0 -45.18 0z" stroke="rgba(24, 39, 47, 1)"></path><path d="M608.04 342.76 a54.66 54.66 0 1 0 109.32 0 a54.66 54.66 0 1 0 -109.32 0z" fill="rgba(251, 173, 52, 1)"></path><path d="M988.97 338.04a18.16 18.16 0 1 0-4.7 36.02z" stroke="rgba(211, 70, 69, 1)"></path><path d="M655.95 546.08L696.48 546.08L696.48 586.61L655.95 586.61z" fill="rgba(211, 70, 69, 1)"></path><path d="M132.52 55.22a19.49 19.49 0 1 0 36.68-13.22z" stroke="rgba(100, 108, 255, 1)"></path><path d="M951.44 541.45a0.98 0.98 0 1 0-0.33 1.93z" stroke="rgba(24, 39, 47, 1)"></path></g><defs><mask id="SvgjsMask1000"><rect width="1440" height="560" fill="#ffffff"></rect></mask></defs></svg>